<?xml version="1.0" encoding="utf-8"?>
<!-- Generator: Adobe Illustrator 23.0.3, SVG Export Plug-In . SVG Version: 6.00 Build 0)  -->
<svg version="1.1" id="Capa_1" xmlns="http://www.w3.org/2000/svg" xmlns:xlink="http://www.w3.org/1999/xlink" x="0px" y="0px"
	 viewBox="0 0 80 80" style="enable-background:new 0 0 80 80;" xml:space="preserve">
<path d="M47.6,10.6V2.7c0-1.5-1.2-2.7-2.7-2.7h-9.6c-1.5,0-2.7,1.2-2.7,2.7v7.9c-4.5,1.3-7.8,5.4-7.8,10.3v1l0,0l0.5,19.5h1h-1
	L28,77.8l0,0c0.3,1.3,1.5,2.2,2.9,2.2h18.3c1.4,0,2.5-0.9,2.9-2.2l0,0l2.4-36.5h-1h1L55,21.8l0,0v-1C55.1,16.1,51.9,12,47.6,10.6z
	 M34.5,2.7c0-0.4,0.3-0.7,0.7-0.7h9.6c0.4,0,0.7,0.3,0.7,0.7v7.4h-11C34.5,10.1,34.5,2.7,34.5,2.7z M35.5,12.1h8.9
	c4.5,0,8.2,3.4,8.7,7.7H26.8C27.3,15.5,31,12.1,35.5,12.1z M27.3,41.3L27,30.9h25.8l-0.3,10.4l-2.1,33.3H29.7L27.3,41.3z M50.2,77
	c0,0.5-0.4,1-1,1H30.9c-0.5,0-1-0.4-1-1v-0.5h20.3C50.2,76.5,50.2,77,50.2,77z M52.9,28.9H27l-0.2-7h26.3L52.9,28.9z"/>
</svg>
